<?xml version="1.0" encoding="UTF-8" standalone="no"?>
<!DOCTYPE svg PUBLIC "-//W3C//DTD SVG 1.1//EN" "http://www.w3.org/Graphics/SVG/1.1/DTD/svg11.dtd">
<svg width="100%" height="100%" viewBox="0 0 354 241" version="1.1" xmlns="http://www.w3.org/2000/svg" xmlns:xlink="http://www.w3.org/1999/xlink" xml:space="preserve" xmlns:serif="http://www.serif.com/" style="fill-rule:evenodd;clip-rule:evenodd;stroke-linecap:round;stroke-linejoin:round;stroke-miterlimit:1.5;">
    <g transform="matrix(1,0,0,1,-73.1972,-79.5404)">
        <g id="Thumbnail">
            <g>
                <g transform="matrix(1.37758,0,0,1.7041,53.8736,-233.086)">
                    <rect x="15.336" y="184.513" width="254.068" height="139.109" style="fill:rgb(5,0,20);stroke:white;stroke-width:1.29px;"/>
                </g>
                <g transform="matrix(1.11821,0,0,1.11821,47.9139,-106.474)">
                    <path d="M24.223,287.098L31.683,279.638L31.683,175L93.036,175.027L100.051,168.012L60.672,168.012L24.223,167.962L24.223,287.098Z" style="fill:white;stroke:white;stroke-width:1.79px;stroke-linecap:square;stroke-linejoin:miter;"/>
                </g>
                <g transform="matrix(-1.11821,0,0,-1.11821,452.086,506.52)">
                    <path d="M24.223,287.098L31.683,279.638L31.683,175L93.036,175.027L100.051,168.012L60.672,168.012L24.223,167.962L24.223,287.098Z" style="fill:white;stroke:white;stroke-width:1.79px;stroke-linecap:square;stroke-linejoin:miter;"/>
                </g>
            </g>
            <g id="Java-Logo" serif:id="Java Logo" transform="matrix(0.940019,0,0,0.940019,100.335,19.5617)">
                <g transform="matrix(1,0,0,1,2.01259,133.333)">
                    <path d="M274.212,0.195C277.837,4.324 279.034,10.228 277.993,15.553C276.872,21.535 273.554,26.821 269.657,31.375C266.532,35.041 262.942,38.282 259.2,41.292C254.839,44.804 250.555,48.586 247.816,53.525C245.5,57.538 244.96,62.478 246.542,66.839C249.127,74.325 255.148,79.882 258.428,86.944C254.8,83.74 251.25,80.422 247.931,76.91C244.458,73.206 241.178,69.269 239.017,64.639C237.551,61.397 236.895,57.616 238.014,54.181C239.133,50.67 241.641,47.853 244.15,45.229C251.134,38.244 259.739,33.112 266.569,26.011C270.353,22.114 273.478,17.445 274.558,12.081C275.446,8.144 275.021,4.092 274.212,0.195Z" style="fill:rgb(233,44,47);fill-rule:nonzero;"/>
                </g>
                <g transform="matrix(1,0,0,1,2.01259,133.333)">
                    <path d="M274.212,0.195C277.837,4.324 279.034,10.228 277.993,15.553C276.872,21.535 273.554,26.821 269.657,31.375C266.532,35.041 262.942,38.282 259.2,41.292C254.839,44.804 250.555,48.586 247.816,53.525C245.5,57.538 244.96,62.478 246.542,66.839C249.127,74.325 255.148,79.882 258.428,86.944C254.8,83.74 251.25,80.422 247.931,76.91C244.458,73.206 241.178,69.269 239.017,64.639C237.551,61.397 236.895,57.616 238.014,54.181C239.133,50.67 241.641,47.853 244.15,45.229C251.134,38.244 259.739,33.112 266.569,26.011C270.353,22.114 273.478,17.445 274.558,12.081C275.446,8.144 275.021,4.092 274.212,0.195Z" style="fill:none;stroke:rgb(233,44,47);stroke-width:0.1px;stroke-linecap:butt;stroke-linejoin:miter;stroke-miterlimit:2;"/>
                </g>
                <g transform="matrix(1,0,0,1,2.01259,133.333)">
                    <path d="M268.499,44.148C275.985,38.63 284.745,35.118 293.62,32.571C286.599,37.048 279.267,41.138 273.208,46.888C271.007,49.01 268.925,51.442 267.96,54.413C267.226,56.612 267.534,59.043 268.423,61.127C270.044,64.832 272.782,67.842 274.866,71.237C276.642,74.132 276.95,77.836 275.601,80.962C273.554,85.554 269.542,88.911 265.374,91.574C264.833,91.883 264.37,92.462 263.714,92.539C266.493,90.03 268.653,86.48 268.577,82.66C268.499,79.804 266.917,77.296 265.065,75.251C261.245,70.697 258.042,64.909 258.698,58.773C259.354,52.638 263.753,47.698 268.499,44.148Z" style="fill:rgb(233,44,47);fill-rule:nonzero;"/>
                </g>
                <g transform="matrix(1,0,0,1,2.01259,133.333)">
                    <path d="M268.499,44.148C275.985,38.63 284.745,35.118 293.62,32.571C286.599,37.048 279.267,41.138 273.208,46.888C271.007,49.01 268.925,51.442 267.96,54.413C267.226,56.612 267.534,59.043 268.423,61.127C270.044,64.832 272.782,67.842 274.866,71.237C276.642,74.132 276.95,77.836 275.601,80.962C273.554,85.554 269.542,88.911 265.374,91.574C264.833,91.883 264.37,92.462 263.714,92.539C266.493,90.03 268.653,86.48 268.577,82.66C268.499,79.804 266.917,77.296 265.065,75.251C261.245,70.697 258.042,64.909 258.698,58.773C259.354,52.638 263.753,47.698 268.499,44.148Z" style="fill:none;stroke:rgb(233,44,47);stroke-width:0.1px;stroke-linecap:butt;stroke-linejoin:miter;stroke-miterlimit:2;"/>
                </g>
                <g transform="matrix(1,0,0,1,2.01259,133.333)">
                    <path d="M295.05,88.757C296.669,86.789 299.255,86.287 301.608,85.979C305.7,85.439 310.06,86.48 313.147,89.298C315.694,91.574 317.122,95.124 316.581,98.559C316.003,102.533 313.339,105.852 310.331,108.36C304.89,112.72 298.175,115.267 291.46,116.965C291.847,116.54 292.271,116.155 292.772,115.846C297.866,113.106 302.921,109.904 306.665,105.427C308.94,102.649 310.716,99.022 309.983,95.356C309.212,91.111 305.083,88.024 300.876,87.792C298.868,87.599 296.979,88.371 295.05,88.757Z" style="fill:rgb(9,117,186);fill-rule:nonzero;"/>
                </g>
                <g transform="matrix(1,0,0,1,2.01259,133.333)">
                    <path d="M295.05,88.757C296.669,86.789 299.255,86.287 301.608,85.979C305.7,85.439 310.06,86.48 313.147,89.298C315.694,91.574 317.122,95.124 316.581,98.559C316.003,102.533 313.339,105.852 310.331,108.36C304.89,112.72 298.175,115.267 291.46,116.965C291.847,116.54 292.271,116.155 292.772,115.846C297.866,113.106 302.921,109.904 306.665,105.427C308.94,102.649 310.716,99.022 309.983,95.356C309.212,91.111 305.083,88.024 300.876,87.792C298.868,87.599 296.979,88.371 295.05,88.757Z" style="fill:none;stroke:rgb(9,117,186);stroke-width:0.1px;stroke-linecap:butt;stroke-linejoin:miter;stroke-miterlimit:2;"/>
                </g>
                <g transform="matrix(1,0,0,1,2.01259,133.333)">
                    <path d="M217.485,92.269C224.585,89.22 232.303,87.252 240.059,87.368C235.544,88.68 230.914,89.799 226.669,91.806C225.666,92.346 224.508,92.847 223.929,93.889C223.621,94.7 224.469,95.24 225.086,95.51C227.71,96.591 230.605,96.745 233.422,97.015C243.3,97.671 253.218,97.285 263.06,96.668C272.782,96.05 282.431,94.738 292.038,93.195C289.917,94.198 287.755,95.201 285.788,96.475C284.784,97.17 283.55,97.362 282.431,97.633C270.622,100.256 258.504,101.067 246.465,101.259C241.795,101.298 237.166,101.221 232.535,100.912C227.364,100.565 222.154,100.179 217.099,98.829C215.632,98.404 214.089,97.941 212.931,96.899C212.352,96.436 212.352,95.51 212.854,94.97C214.127,93.658 215.903,93.04 217.485,92.269Z" style="fill:rgb(9,117,186);fill-rule:nonzero;"/>
                </g>
                <g transform="matrix(1,0,0,1,2.01259,133.333)">
                    <path d="M217.485,92.269C224.585,89.22 232.303,87.252 240.059,87.368C235.544,88.68 230.914,89.799 226.669,91.806C225.666,92.346 224.508,92.847 223.929,93.889C223.621,94.7 224.469,95.24 225.086,95.51C227.71,96.591 230.605,96.745 233.422,97.015C243.3,97.671 253.218,97.285 263.06,96.668C272.782,96.05 282.431,94.738 292.038,93.195C289.917,94.198 287.755,95.201 285.788,96.475C284.784,97.17 283.55,97.362 282.431,97.633C270.622,100.256 258.504,101.067 246.465,101.259C241.795,101.298 237.166,101.221 232.535,100.912C227.364,100.565 222.154,100.179 217.099,98.829C215.632,98.404 214.089,97.941 212.931,96.899C212.352,96.436 212.352,95.51 212.854,94.97C214.127,93.658 215.903,93.04 217.485,92.269Z" style="fill:none;stroke:rgb(9,117,186);stroke-width:0.1px;stroke-linecap:butt;stroke-linejoin:miter;stroke-miterlimit:2;"/>
                </g>
                <g transform="matrix(1,0,0,1,2.01259,133.333)">
                    <path d="M226.591,108.746C228.598,107.164 230.991,106.276 233.383,105.427C232.612,106.353 231.531,107.241 231.454,108.514C231.416,109.324 232.072,109.942 232.727,110.328C234,110.984 235.428,111.216 236.857,111.408C244.265,112.18 251.751,112.605 259.238,112.103C266.067,111.756 272.86,110.636 279.614,109.44C281.466,111.177 283.665,112.373 285.981,113.415C277.837,115.807 269.464,117.197 261.052,117.853C253.103,118.393 245.038,118.355 237.126,117.08C234,116.502 230.798,115.846 227.943,114.38C226.785,113.762 225.473,112.952 225.125,111.601C224.894,110.444 225.743,109.402 226.591,108.746Z" style="fill:rgb(9,117,186);fill-rule:nonzero;"/>
                </g>
                <g transform="matrix(1,0,0,1,2.01259,133.333)">
                    <path d="M226.591,108.746C228.598,107.164 230.991,106.276 233.383,105.427C232.612,106.353 231.531,107.241 231.454,108.514C231.416,109.324 232.072,109.942 232.727,110.328C234,110.984 235.428,111.216 236.857,111.408C244.265,112.18 251.751,112.605 259.238,112.103C266.067,111.756 272.86,110.636 279.614,109.44C281.466,111.177 283.665,112.373 285.981,113.415C277.837,115.807 269.464,117.197 261.052,117.853C253.103,118.393 245.038,118.355 237.126,117.08C234,116.502 230.798,115.846 227.943,114.38C226.785,113.762 225.473,112.952 225.125,111.601C224.894,110.444 225.743,109.402 226.591,108.746Z" style="fill:none;stroke:rgb(9,117,186);stroke-width:0.1px;stroke-linecap:butt;stroke-linejoin:miter;stroke-miterlimit:2;"/>
                </g>
                <g transform="matrix(1,0,0,1,2.01259,133.333)">
                    <path d="M231.068,125.571C232.843,124.143 235.042,123.409 237.204,122.792C236.509,123.447 235.274,124.258 235.815,125.377C236.857,126.729 238.786,126.883 240.33,127.231C246.851,128.04 253.45,128.58 259.971,128.078C264.911,127.77 269.772,126.883 274.597,126.033C277.374,127.655 280.269,129.043 283.239,130.279C278.687,132.323 273.786,133.635 268.886,134.562C260.627,136.028 252.099,136.221 243.802,134.909C240.136,134.253 236.393,133.405 233.075,131.59C231.801,130.858 230.451,130.008 229.911,128.58C229.486,127.461 230.18,126.266 231.068,125.571Z" style="fill:rgb(9,117,186);fill-rule:nonzero;"/>
                </g>
                <g transform="matrix(1,0,0,1,2.01259,133.333)">
                    <path d="M231.068,125.571C232.843,124.143 235.042,123.409 237.204,122.792C236.509,123.447 235.274,124.258 235.815,125.377C236.857,126.729 238.786,126.883 240.33,127.231C246.851,128.04 253.45,128.58 259.971,128.078C264.911,127.77 269.772,126.883 274.597,126.033C277.374,127.655 280.269,129.043 283.239,130.279C278.687,132.323 273.786,133.635 268.886,134.562C260.627,136.028 252.099,136.221 243.802,134.909C240.136,134.253 236.393,133.405 233.075,131.59C231.801,130.858 230.451,130.008 229.911,128.58C229.486,127.461 230.18,126.266 231.068,125.571Z" style="fill:none;stroke:rgb(9,117,186);stroke-width:0.1px;stroke-linecap:butt;stroke-linejoin:miter;stroke-miterlimit:2;"/>
                </g>
                <g transform="matrix(1,0,0,1,2.01259,133.333)">
                    <path d="M209.651,136.491C213.202,135.295 216.868,134.33 220.611,134.215C222.116,134.176 223.659,134.253 224.971,135.025C220.495,135.295 216.018,136.414 212.005,138.459C211.118,138.961 210.114,139.54 209.767,140.582C209.767,141.778 211.118,142.164 212.005,142.549C217.601,144.633 223.582,145.289 229.448,145.907C246.928,147.373 264.524,146.988 282.005,145.405C288.604,144.672 295.241,143.939 301.647,142.125C303.692,141.43 306.007,140.737 307.358,138.922C308.169,137.842 307.63,136.491 306.819,135.565C308.13,136.299 309.983,137.225 309.714,139C309.212,140.852 307.319,141.817 305.776,142.704C300.837,145.213 295.396,146.487 289.993,147.605C274.288,150.692 258.196,151.387 242.22,150.924C230.18,150.498 218.141,149.341 206.255,147.297C204.133,146.795 201.741,146.369 200.197,144.711C199.194,143.553 200.081,141.932 201.045,141.084C203.477,138.846 206.603,137.611 209.651,136.491Z" style="fill:rgb(9,117,186);fill-rule:nonzero;"/>
                </g>
                <g transform="matrix(1,0,0,1,2.01259,133.333)">
                    <path d="M209.651,136.491C213.202,135.295 216.868,134.33 220.611,134.215C222.116,134.176 223.659,134.253 224.971,135.025C220.495,135.295 216.018,136.414 212.005,138.459C211.118,138.961 210.114,139.54 209.767,140.582C209.767,141.778 211.118,142.164 212.005,142.549C217.601,144.633 223.582,145.289 229.448,145.907C246.928,147.373 264.524,146.988 282.005,145.405C288.604,144.672 295.241,143.939 301.647,142.125C303.692,141.43 306.007,140.737 307.358,138.922C308.169,137.842 307.63,136.491 306.819,135.565C308.13,136.299 309.983,137.225 309.714,139C309.212,140.852 307.319,141.817 305.776,142.704C300.837,145.213 295.396,146.487 289.993,147.605C274.288,150.692 258.196,151.387 242.22,150.924C230.18,150.498 218.141,149.341 206.255,147.297C204.133,146.795 201.741,146.369 200.197,144.711C199.194,143.553 200.081,141.932 201.045,141.084C203.477,138.846 206.603,137.611 209.651,136.491Z" style="fill:none;stroke:rgb(9,117,186);stroke-width:0.1px;stroke-linecap:butt;stroke-linejoin:miter;stroke-miterlimit:2;"/>
                </g>
                <g transform="matrix(1,0,0,1,2.01259,133.333)">
                    <path d="M305.815,149.689C309.714,148.338 313.88,146.91 316.774,143.823C316.272,147.18 313.378,149.496 310.522,151C305.044,153.857 298.907,155.168 292.812,156.248C279.921,158.294 266.841,158.795 253.758,158.565C244.844,158.294 235.853,157.947 227.093,156.094C225.009,155.516 222.771,155.129 220.958,153.895C228.752,155.207 236.664,155.748 244.575,156.056C257.579,156.442 270.622,155.941 283.55,154.319C291.036,153.278 298.56,152.004 305.815,149.689Z" style="fill:rgb(9,117,186);fill-rule:nonzero;"/>
                </g>
                <g transform="matrix(1,0,0,1,2.01259,133.333)">
                    <path d="M305.815,149.689C309.714,148.338 313.88,146.91 316.774,143.823C316.272,147.18 313.378,149.496 310.522,151C305.044,153.857 298.907,155.168 292.812,156.248C279.921,158.294 266.841,158.795 253.758,158.565C244.844,158.294 235.853,157.947 227.093,156.094C225.009,155.516 222.771,155.129 220.958,153.895C228.752,155.207 236.664,155.748 244.575,156.056C257.579,156.442 270.622,155.941 283.55,154.319C291.036,153.278 298.56,152.004 305.815,149.689Z" style="fill:none;stroke:rgb(9,117,186);stroke-width:0.1px;stroke-linecap:butt;stroke-linejoin:miter;stroke-miterlimit:2;"/>
                </g>
            </g>
            <g id="Title" transform="matrix(1,0,0,1,9.36487,11.2595)">
                <text x="89.695px" y="128.78px" style="font-family:'Terminator';font-weight:500;font-size:20px;fill:white;">PROGRAMMING</text>
                <g transform="matrix(20,0,0,20,256.155,148.78)">
                </g>
                <text x="89.695px" y="148.78px" style="font-family:'Terminator';font-weight:500;font-size:20px;fill:white;">WITH J<tspan x="201.575px 218.235px 235.055px " y="148.78px 148.78px 148.78px ">AVA</tspan></text>
            </g>
        </g>
    </g>
</svg>
