<?xml version="1.0" encoding="UTF-8" standalone="no"?>
<!DOCTYPE svg PUBLIC "-//W3C//DTD SVG 1.1//EN" "http://www.w3.org/Graphics/SVG/1.1/DTD/svg11.dtd">
<svg width="100%" height="100%" viewBox="0 0 352 240" version="1.1" xmlns="http://www.w3.org/2000/svg" xmlns:xlink="http://www.w3.org/1999/xlink" xml:space="preserve" xmlns:serif="http://www.serif.com/" style="fill-rule:evenodd;clip-rule:evenodd;stroke-linecap:round;stroke-linejoin:round;stroke-miterlimit:1.5;">
    <g transform="matrix(1,0,0,1,-74.0377,-80.2968)">
        <g id="Thumbnail" transform="matrix(1,0,0,0.997716,0,0.185676)">
            <g id="Window" transform="matrix(1.11831,0,0,1.11831,-29.5584,-23.3933)">
                <g transform="matrix(-1.57942,0,0,-1.73129,1491.06,612.969)">
                    <path d="M884.834,177.084L884.834,299.981L695.024,299.981L686.699,291.722L686.699,177.084L884.834,177.084Z" style="fill:rgb(5,0,20);stroke:white;stroke-width:1.08px;"/>
                </g>
                <g transform="matrix(1,0,0,1,-593.396,-320.938)">
                    <path d="M686.927,414.553L686.927,445.183L717.524,414.586L686.927,414.553Z" style="fill:white;stroke:white;stroke-width:1.79px;"/>
                </g>
                <g transform="matrix(-1,-1.22465e-16,1.22465e-16,-1,1093.4,720.938)">
                    <path d="M686.927,414.553L686.927,445.183L717.524,414.586L686.927,414.553Z" style="fill:white;stroke:white;stroke-width:1.79px;"/>
                </g>
            </g>
            <g id="CPU" transform="matrix(0.920283,0,0,0.920283,164.517,17.8665)">
                <g transform="matrix(0.369711,0,0,0.369711,136.352,176.964)">
                    <path d="M321.337,94.15C315.57,94.15 310.896,89.475 310.896,83.709C310.896,77.942 315.57,73.268 321.337,73.268C322.009,73.268 322.665,73.337 323.302,73.459L323.302,12.57L0,12.57L0,73.365C0.443,73.307 0.892,73.268 1.351,73.268C7.117,73.268 11.792,77.942 11.792,83.709C11.792,89.475 7.117,94.15 1.351,94.15C0.892,94.15 0.443,94.11 0,94.052L0,335.872L323.302,335.872L323.302,93.959C322.665,94.08 322.009,94.15 321.337,94.15Z" style="fill:rgb(204,223,117);fill-rule:nonzero;"/>
                </g>
                <g transform="matrix(0.369711,0,0,0.369711,136.352,176.964)">
                    <path d="M310.896,83.709C310.896,77.942 315.57,73.268 321.337,73.268L321.337,14.535L1.965,14.535L1.965,73.299C7.443,73.618 11.792,78.15 11.792,83.709C11.792,89.268 7.443,93.799 1.965,94.119L1.965,333.906L321.337,333.906L321.337,94.15C315.57,94.15 310.896,89.475 310.896,83.709Z" style="fill:rgb(31,115,89);fill-rule:nonzero;"/>
                </g>
                <g transform="matrix(0.369711,0,0,0.369711,136.352,176.964)">
                    <path d="M265.815,44.998L57.487,44.998C43.647,44.998 32.428,56.218 32.428,70.057L32.428,278.385C32.428,292.224 43.647,303.443 57.487,303.443L134.749,303.443L138.067,292.142L185.236,292.142L188.553,303.443L265.815,303.443C279.654,303.443 290.874,292.224 290.874,278.385L290.874,70.057C290.874,56.218 279.654,44.998 265.815,44.998Z" style="fill:rgb(226,237,233);fill-rule:nonzero;"/>
                </g>
                <g transform="matrix(0.369711,0,0,0.369711,136.352,176.964)">
                    <path d="M257.659,287.229L65.642,287.229C56.254,287.229 48.642,279.618 48.642,270.229L48.642,78.213C48.642,68.824 56.254,61.213 65.642,61.213L257.659,61.213C267.048,61.213 274.659,68.824 274.659,78.213L274.659,270.229C274.659,279.618 267.048,287.229 257.659,287.229Z" style="fill:rgb(148,149,154);fill-rule:nonzero;"/>
                </g>
                <g transform="matrix(0.369711,0,0,0.369711,136.352,176.964)">
                    <path d="M252.485,278.653L70.817,278.653C63.307,278.653 57.218,272.564 57.218,265.054L57.218,83.387C57.218,75.877 63.307,69.789 70.817,69.789L252.485,69.789C259.995,69.789 266.083,75.877 266.083,83.387L266.083,265.054C266.083,272.564 259.995,278.653 252.485,278.653Z" style="fill:rgb(228,230,229);fill-rule:nonzero;"/>
                </g>
                <g transform="matrix(0.369711,0,0,0.369711,136.352,176.964)">
                    <path d="M17.688,24.362C17.688,27.618 15.048,30.259 11.792,30.259C8.535,30.259 5.896,27.618 5.896,24.362C5.896,21.106 8.535,18.466 11.792,18.466C15.048,18.466 17.688,21.106 17.688,24.362Z" style="fill:white;fill-rule:nonzero;"/>
                </g>
                <g transform="matrix(0.369711,0,0,0.369711,136.352,176.964)">
                    <path d="M317.406,24.362C317.406,27.618 314.766,30.259 311.51,30.259C308.254,30.259 305.614,27.618 305.614,24.362C305.614,21.106 308.254,18.466 311.51,18.466C314.766,18.466 317.406,21.106 317.406,24.362Z" style="fill:white;fill-rule:nonzero;"/>
                </g>
                <g transform="matrix(0.369711,0,0,0.369711,136.352,176.964)">
                    <path d="M317.406,324.079C317.406,327.336 314.766,329.975 311.51,329.975C308.254,329.975 305.614,327.336 305.614,324.079C305.614,320.823 308.254,318.183 311.51,318.183C314.766,318.183 317.406,320.823 317.406,324.079Z" style="fill:white;fill-rule:nonzero;"/>
                </g>
                <g transform="matrix(0.369711,0,0,0.369711,136.352,176.964)">
                    <path d="M17.688,324.079C17.688,327.336 15.048,329.975 11.792,329.975C8.535,329.975 5.896,327.336 5.896,324.079C5.896,320.823 8.535,318.183 11.792,318.183C15.048,318.183 17.688,320.823 17.688,324.079Z" style="fill:white;fill-rule:nonzero;"/>
                </g>
                <g transform="matrix(0.369711,0,0,0.369711,136.352,176.964)">
                    <path d="M264.346,321.152C264.346,323.04 262.816,324.571 260.927,324.571C259.039,324.571 257.508,323.04 257.508,321.152C257.508,319.263 259.039,317.732 260.927,317.732C262.816,317.732 264.346,319.263 264.346,321.152Z" style="fill:rgb(250,244,150);fill-rule:nonzero;"/>
                </g>
                <g transform="matrix(0.369711,0,0,0.369711,136.352,176.964)">
                    <path d="M267.766,327.99C267.766,329.879 266.235,331.409 264.346,331.409C262.458,331.409 260.927,329.879 260.927,327.99C260.927,326.102 262.458,324.571 264.346,324.571C266.235,324.571 267.766,326.102 267.766,327.99Z" style="fill:rgb(250,244,150);fill-rule:nonzero;"/>
                </g>
                <g transform="matrix(0.369711,0,0,0.369711,136.352,176.964)">
                    <path d="M272.361,321.152C272.361,323.04 270.831,324.571 268.942,324.571C267.054,324.571 265.523,323.04 265.523,321.152C265.523,319.263 267.054,317.732 268.942,317.732C270.831,317.732 272.361,319.263 272.361,321.152Z" style="fill:rgb(250,244,150);fill-rule:nonzero;"/>
                </g>
                <g transform="matrix(0.369711,0,0,0.369711,136.352,176.964)">
                    <path d="M275.78,327.99C275.78,329.879 274.25,331.409 272.361,331.409C270.473,331.409 268.942,329.879 268.942,327.99C268.942,326.102 270.473,324.571 272.361,324.571C274.25,324.571 275.78,326.102 275.78,327.99Z" style="fill:rgb(250,244,150);fill-rule:nonzero;"/>
                </g>
                <g transform="matrix(0.369711,0,0,0.369711,136.352,176.964)">
                    <path d="M280.376,321.152C280.376,323.04 278.845,324.571 276.957,324.571C275.069,324.571 273.538,323.04 273.538,321.152C273.538,319.263 275.069,317.732 276.957,317.732C278.845,317.732 280.376,319.263 280.376,321.152Z" style="fill:rgb(250,244,150);fill-rule:nonzero;"/>
                </g>
                <g transform="matrix(0.369711,0,0,0.369711,136.352,176.964)">
                    <path d="M283.796,327.99C283.796,329.879 282.265,331.409 280.376,331.409C278.488,331.409 276.957,329.879 276.957,327.99C276.957,326.102 278.488,324.571 280.376,324.571C282.265,324.571 283.796,326.102 283.796,327.99Z" style="fill:rgb(250,244,150);fill-rule:nonzero;"/>
                </g>
                <g transform="matrix(0.369711,0,0,0.369711,136.352,176.964)">
                    <path d="M288.391,321.152C288.391,323.04 286.861,324.571 284.972,324.571C283.084,324.571 281.553,323.04 281.553,321.152C281.553,319.263 283.084,317.732 284.972,317.732C286.861,317.732 288.391,319.263 288.391,321.152Z" style="fill:rgb(250,244,150);fill-rule:nonzero;"/>
                </g>
                <g transform="matrix(0.369711,0,0,0.369711,136.352,176.964)">
                    <path d="M291.811,327.99C291.811,329.879 290.28,331.409 288.391,331.409C286.503,331.409 284.972,329.879 284.972,327.99C284.972,326.102 286.503,324.571 288.391,324.571C290.28,324.571 291.811,326.102 291.811,327.99Z" style="fill:rgb(250,244,150);fill-rule:nonzero;"/>
                </g>
                <g transform="matrix(0.369711,0,0,0.369711,136.352,176.964)">
                    <path d="M314.929,273.702C313.041,273.702 311.51,272.171 311.51,270.283C311.51,268.395 313.041,266.864 314.929,266.864C316.818,266.864 318.348,268.395 318.348,270.283C318.348,272.171 316.818,273.702 314.929,273.702Z" style="fill:rgb(250,244,150);fill-rule:nonzero;"/>
                </g>
                <g transform="matrix(0.369711,0,0,0.369711,136.352,176.964)">
                    <path d="M308.09,277.121C306.202,277.121 304.671,275.591 304.671,273.702C304.671,271.814 306.202,270.283 308.09,270.283C309.979,270.283 311.51,271.814 311.51,273.702C311.51,275.591 309.979,277.121 308.09,277.121Z" style="fill:rgb(250,244,150);fill-rule:nonzero;"/>
                </g>
                <g transform="matrix(0.369711,0,0,0.369711,136.352,176.964)">
                    <path d="M314.929,281.717C313.041,281.717 311.51,280.186 311.51,278.298C311.51,276.409 313.041,274.879 314.929,274.879C316.818,274.879 318.348,276.409 318.348,278.298C318.348,280.186 316.818,281.717 314.929,281.717Z" style="fill:rgb(250,244,150);fill-rule:nonzero;"/>
                </g>
                <g transform="matrix(0.369711,0,0,0.369711,136.352,176.964)">
                    <path d="M308.09,285.136C306.202,285.136 304.671,283.606 304.671,281.717C304.671,279.829 306.202,278.298 308.09,278.298C309.979,278.298 311.51,279.829 311.51,281.717C311.51,283.606 309.979,285.136 308.09,285.136Z" style="fill:rgb(250,244,150);fill-rule:nonzero;"/>
                </g>
                <g transform="matrix(0.369711,0,0,0.369711,136.352,176.964)">
                    <path d="M314.929,289.732C313.041,289.732 311.51,288.201 311.51,286.313C311.51,284.425 313.041,282.894 314.929,282.894C316.818,282.894 318.348,284.425 318.348,286.313C318.348,288.201 316.818,289.732 314.929,289.732Z" style="fill:rgb(250,244,150);fill-rule:nonzero;"/>
                </g>
                <g transform="matrix(0.369711,0,0,0.369711,136.352,176.964)">
                    <path d="M308.09,293.152C306.202,293.152 304.671,291.62 304.671,289.732C304.671,287.844 306.202,286.313 308.09,286.313C309.979,286.313 311.51,287.844 311.51,289.732C311.51,291.62 309.979,293.152 308.09,293.152Z" style="fill:rgb(250,244,150);fill-rule:nonzero;"/>
                </g>
                <g transform="matrix(0.369711,0,0,0.369711,136.352,176.964)">
                    <path d="M314.929,297.747C313.041,297.747 311.51,296.217 311.51,294.328C311.51,292.44 313.041,290.908 314.929,290.908C316.818,290.908 318.348,292.44 318.348,294.328C318.348,296.217 316.818,297.747 314.929,297.747Z" style="fill:rgb(250,244,150);fill-rule:nonzero;"/>
                </g>
                <g transform="matrix(0.369711,0,0,0.369711,136.352,176.964)">
                    <path d="M308.09,301.166C306.202,301.166 304.671,299.636 304.671,297.747C304.671,295.859 306.202,294.328 308.09,294.328C309.979,294.328 311.51,295.859 311.51,297.747C311.51,299.636 309.979,301.166 308.09,301.166Z" style="fill:rgb(250,244,150);fill-rule:nonzero;"/>
                </g>
                <g transform="matrix(0.369711,0,0,0.369711,136.352,176.964)">
                    <path d="M15.211,262.089C13.322,262.089 11.792,260.558 11.792,258.67C11.792,256.782 13.322,255.251 15.211,255.251C17.099,255.251 18.63,256.782 18.63,258.67C18.63,260.558 17.099,262.089 15.211,262.089Z" style="fill:rgb(250,244,150);fill-rule:nonzero;"/>
                </g>
                <g transform="matrix(0.369711,0,0,0.369711,136.352,176.964)">
                    <path d="M8.372,265.508C6.484,265.508 4.953,263.977 4.953,262.089C4.953,260.2 6.484,258.67 8.372,258.67C10.261,258.67 11.792,260.2 11.792,262.089C11.792,263.977 10.261,265.508 8.372,265.508Z" style="fill:rgb(250,244,150);fill-rule:nonzero;"/>
                </g>
                <g transform="matrix(0.369711,0,0,0.369711,136.352,176.964)">
                    <path d="M15.211,270.104C13.322,270.104 11.792,268.573 11.792,266.685C11.792,264.796 13.322,263.265 15.211,263.265C17.099,263.265 18.63,264.796 18.63,266.685C18.63,268.573 17.099,270.104 15.211,270.104Z" style="fill:rgb(250,244,150);fill-rule:nonzero;"/>
                </g>
                <g transform="matrix(0.369711,0,0,0.369711,136.352,176.964)">
                    <path d="M8.372,273.523C6.484,273.523 4.953,271.992 4.953,270.104C4.953,268.216 6.484,266.685 8.372,266.685C10.261,266.685 11.792,268.216 11.792,270.104C11.792,271.992 10.261,273.523 8.372,273.523Z" style="fill:rgb(250,244,150);fill-rule:nonzero;"/>
                </g>
                <g transform="matrix(0.369711,0,0,0.369711,136.352,176.964)">
                    <path d="M15.211,262.089C13.322,262.089 11.792,260.558 11.792,258.67C11.792,256.782 13.322,255.251 15.211,255.251C17.099,255.251 18.63,256.782 18.63,258.67C18.63,260.558 17.099,262.089 15.211,262.089Z" style="fill:rgb(250,244,150);fill-rule:nonzero;"/>
                </g>
                <g transform="matrix(0.369711,0,0,0.369711,136.352,176.964)">
                    <path d="M8.372,265.508C6.484,265.508 4.953,263.977 4.953,262.089C4.953,260.2 6.484,258.67 8.372,258.67C10.261,258.67 11.792,260.2 11.792,262.089C11.792,263.977 10.261,265.508 8.372,265.508Z" style="fill:rgb(250,244,150);fill-rule:nonzero;"/>
                </g>
                <g transform="matrix(0.369711,0,0,0.369711,136.352,176.964)">
                    <path d="M15.211,254.074C13.322,254.074 11.792,252.543 11.792,250.655C11.792,248.766 13.322,247.236 15.211,247.236C17.099,247.236 18.63,248.766 18.63,250.655C18.63,252.543 17.099,254.074 15.211,254.074Z" style="fill:rgb(250,244,150);fill-rule:nonzero;"/>
                </g>
                <g transform="matrix(0.369711,0,0,0.369711,136.352,176.964)">
                    <path d="M8.372,257.493C6.484,257.493 4.953,255.963 4.953,254.074C4.953,252.186 6.484,250.655 8.372,250.655C10.261,250.655 11.792,252.186 11.792,254.074C11.792,255.963 10.261,257.493 8.372,257.493Z" style="fill:rgb(250,244,150);fill-rule:nonzero;"/>
                </g>
                <g transform="matrix(0.369711,0,0,0.369711,136.352,176.964)">
                    <path d="M15.211,246.059C13.322,246.059 11.792,244.528 11.792,242.64C11.792,240.751 13.322,239.22 15.211,239.22C17.099,239.22 18.63,240.751 18.63,242.64C18.63,244.528 17.099,246.059 15.211,246.059Z" style="fill:rgb(250,244,150);fill-rule:nonzero;"/>
                </g>
                <g transform="matrix(0.369711,0,0,0.369711,136.352,176.964)">
                    <path d="M8.372,249.478C6.484,249.478 4.953,247.948 4.953,246.059C4.953,244.171 6.484,242.64 8.372,242.64C10.261,242.64 11.792,244.171 11.792,246.059C11.792,247.948 10.261,249.478 8.372,249.478Z" style="fill:rgb(250,244,150);fill-rule:nonzero;"/>
                </g>
                <g transform="matrix(0.369711,0,0,0.369711,136.352,176.964)">
                    <path d="M15.211,238.044C13.322,238.044 11.792,236.513 11.792,234.625C11.792,232.737 13.322,231.205 15.211,231.205C17.099,231.205 18.63,232.737 18.63,234.625C18.63,236.513 17.099,238.044 15.211,238.044Z" style="fill:rgb(250,244,150);fill-rule:nonzero;"/>
                </g>
                <g transform="matrix(0.369711,0,0,0.369711,136.352,176.964)">
                    <path d="M8.372,241.463C6.484,241.463 4.953,239.932 4.953,238.044C4.953,236.156 6.484,234.625 8.372,234.625C10.261,234.625 11.792,236.156 11.792,238.044C11.792,239.932 10.261,241.463 8.372,241.463Z" style="fill:rgb(250,244,150);fill-rule:nonzero;"/>
                </g>
                <g transform="matrix(0.369711,0,0,0.369711,136.352,176.964)">
                    <path d="M15.211,230.029C13.322,230.029 11.792,228.498 11.792,226.61C11.792,224.721 13.322,223.191 15.211,223.191C17.099,223.191 18.63,224.721 18.63,226.61C18.63,228.498 17.099,230.029 15.211,230.029Z" style="fill:rgb(250,244,150);fill-rule:nonzero;"/>
                </g>
                <g transform="matrix(0.369711,0,0,0.369711,136.352,176.964)">
                    <path d="M8.372,233.448C6.484,233.448 4.953,231.917 4.953,230.029C4.953,228.141 6.484,226.61 8.372,226.61C10.261,226.61 11.792,228.141 11.792,230.029C11.792,231.917 10.261,233.448 8.372,233.448Z" style="fill:rgb(250,244,150);fill-rule:nonzero;"/>
                </g>
                <g transform="matrix(0.369711,0,0,0.369711,136.352,176.964)">
                    <path d="M15.211,222.014C13.322,222.014 11.792,220.483 11.792,218.595C11.792,216.706 13.322,215.176 15.211,215.176C17.099,215.176 18.63,216.706 18.63,218.595C18.63,220.483 17.099,222.014 15.211,222.014Z" style="fill:rgb(250,244,150);fill-rule:nonzero;"/>
                </g>
                <g transform="matrix(0.369711,0,0,0.369711,136.352,176.964)">
                    <path d="M8.372,225.433C6.484,225.433 4.953,223.903 4.953,222.014C4.953,220.126 6.484,218.595 8.372,218.595C10.261,218.595 11.792,220.126 11.792,222.014C11.792,223.903 10.261,225.433 8.372,225.433Z" style="fill:rgb(250,244,150);fill-rule:nonzero;"/>
                </g>
                <g transform="matrix(0.369711,0,0,0.369711,136.352,176.964)">
                    <path d="M15.211,213.999C13.322,213.999 11.792,212.468 11.792,210.58C11.792,208.692 13.322,207.16 15.211,207.16C17.099,207.16 18.63,208.692 18.63,210.58C18.63,212.468 17.099,213.999 15.211,213.999Z" style="fill:rgb(250,244,150);fill-rule:nonzero;"/>
                </g>
                <g transform="matrix(0.369711,0,0,0.369711,136.352,176.964)">
                    <path d="M8.372,217.418C6.484,217.418 4.953,215.887 4.953,213.999C4.953,212.111 6.484,210.58 8.372,210.58C10.261,210.58 11.792,212.111 11.792,213.999C11.792,215.887 10.261,217.418 8.372,217.418Z" style="fill:rgb(250,244,150);fill-rule:nonzero;"/>
                </g>
                <g transform="matrix(0.369711,0,0,0.369711,136.352,176.964)">
                    <path d="M15.211,205.984C13.322,205.984 11.792,204.453 11.792,202.565C11.792,200.677 13.322,199.146 15.211,199.146C17.099,199.146 18.63,200.677 18.63,202.565C18.63,204.453 17.099,205.984 15.211,205.984Z" style="fill:rgb(250,244,150);fill-rule:nonzero;"/>
                </g>
                <g transform="matrix(0.369711,0,0,0.369711,136.352,176.964)">
                    <path d="M8.372,209.403C6.484,209.403 4.953,207.872 4.953,205.984C4.953,204.095 6.484,202.565 8.372,202.565C10.261,202.565 11.792,204.095 11.792,205.984C11.792,207.872 10.261,209.403 8.372,209.403Z" style="fill:rgb(250,244,150);fill-rule:nonzero;"/>
                </g>
                <g transform="matrix(0.369711,0,0,0.369711,136.352,176.964)">
                    <path d="M15.211,197.969C13.322,197.969 11.792,196.438 11.792,194.55C11.792,192.661 13.322,191.131 15.211,191.131C17.099,191.131 18.63,192.661 18.63,194.55C18.63,196.438 17.099,197.969 15.211,197.969Z" style="fill:rgb(250,244,150);fill-rule:nonzero;"/>
                </g>
                <g transform="matrix(0.369711,0,0,0.369711,136.352,176.964)">
                    <path d="M8.372,201.388C6.484,201.388 4.953,199.858 4.953,197.969C4.953,196.081 6.484,194.55 8.372,194.55C10.261,194.55 11.792,196.081 11.792,197.969C11.792,199.858 10.261,201.388 8.372,201.388Z" style="fill:rgb(250,244,150);fill-rule:nonzero;"/>
                </g>
                <g transform="matrix(0.369711,0,0,0.369711,136.352,176.964)">
                    <path d="M15.211,189.954C13.322,189.954 11.792,188.423 11.792,186.535C11.792,184.646 13.322,183.115 15.211,183.115C17.099,183.115 18.63,184.646 18.63,186.535C18.63,188.423 17.099,189.954 15.211,189.954Z" style="fill:rgb(250,244,150);fill-rule:nonzero;"/>
                </g>
                <g transform="matrix(0.369711,0,0,0.369711,136.352,176.964)">
                    <path d="M8.372,193.373C6.484,193.373 4.953,191.843 4.953,189.954C4.953,188.066 6.484,186.535 8.372,186.535C10.261,186.535 11.792,188.066 11.792,189.954C11.792,191.843 10.261,193.373 8.372,193.373Z" style="fill:rgb(250,244,150);fill-rule:nonzero;"/>
                </g>
                <g transform="matrix(0.369711,0,0,0.369711,136.352,176.964)">
                    <path d="M186.75,27.781C186.75,25.893 188.28,24.362 190.169,24.362C192.057,24.362 193.588,25.893 193.588,27.781C193.588,29.67 192.057,31.201 190.169,31.201C188.28,31.201 186.75,29.67 186.75,27.781Z" style="fill:rgb(250,244,150);fill-rule:nonzero;"/>
                </g>
                <g transform="matrix(0.369711,0,0,0.369711,136.352,176.964)">
                    <path d="M183.33,20.943C183.33,19.054 184.861,17.524 186.75,17.524C188.638,17.524 190.169,19.054 190.169,20.943C190.169,22.831 188.638,24.362 186.75,24.362C184.861,24.362 183.33,22.831 183.33,20.943Z" style="fill:rgb(250,244,150);fill-rule:nonzero;"/>
                </g>
                <g transform="matrix(0.369711,0,0,0.369711,136.352,176.964)">
                    <path d="M194.765,27.781C194.765,25.893 196.296,24.362 198.184,24.362C200.072,24.362 201.603,25.893 201.603,27.781C201.603,29.67 200.072,31.201 198.184,31.201C196.296,31.201 194.765,29.67 194.765,27.781Z" style="fill:rgb(250,244,150);fill-rule:nonzero;"/>
                </g>
                <g transform="matrix(0.369711,0,0,0.369711,136.352,176.964)">
                    <path d="M191.345,20.943C191.345,19.054 192.876,17.524 194.765,17.524C196.653,17.524 198.184,19.054 198.184,20.943C198.184,22.831 196.653,24.362 194.765,24.362C192.876,24.362 191.345,22.831 191.345,20.943Z" style="fill:rgb(250,244,150);fill-rule:nonzero;"/>
                </g>
                <g transform="matrix(0.369711,0,0,0.369711,136.352,176.964)">
                    <path d="M218.195,27.781C218.195,25.893 219.726,24.362 221.614,24.362C223.503,24.362 225.034,25.893 225.034,27.781C225.034,29.67 223.503,31.201 221.614,31.201C219.726,31.201 218.195,29.67 218.195,27.781Z" style="fill:rgb(250,244,150);fill-rule:nonzero;"/>
                </g>
                <g transform="matrix(0.369711,0,0,0.369711,136.352,176.964)">
                    <path d="M214.776,20.943C214.776,19.054 216.307,17.524 218.195,17.524C220.084,17.524 221.614,19.054 221.614,20.943C221.614,22.831 220.084,24.362 218.195,24.362C216.307,24.362 214.776,22.831 214.776,20.943Z" style="fill:rgb(250,244,150);fill-rule:nonzero;"/>
                </g>
                <g transform="matrix(0.369711,0,0,0.369711,136.352,176.964)">
                    <path d="M226.211,27.781C226.211,25.893 227.741,24.362 229.63,24.362C231.518,24.362 233.049,25.893 233.049,27.781C233.049,29.67 231.518,31.201 229.63,31.201C227.741,31.201 226.211,29.67 226.211,27.781Z" style="fill:rgb(250,244,150);fill-rule:nonzero;"/>
                </g>
                <g transform="matrix(0.369711,0,0,0.369711,136.352,176.964)">
                    <path d="M222.791,20.943C222.791,19.054 224.322,17.524 226.211,17.524C228.099,17.524 229.63,19.054 229.63,20.943C229.63,22.831 228.099,24.362 226.211,24.362C224.322,24.362 222.791,22.831 222.791,20.943Z" style="fill:rgb(250,244,150);fill-rule:nonzero;"/>
                </g>
                <g transform="matrix(0.369711,0,0,0.369711,136.352,176.964)">
                    <path d="M249.641,27.781C249.641,25.893 251.172,24.362 253.06,24.362C254.949,24.362 256.48,25.893 256.48,27.781C256.48,29.67 254.949,31.201 253.06,31.201C251.172,31.201 249.641,29.67 249.641,27.781Z" style="fill:rgb(250,244,150);fill-rule:nonzero;"/>
                </g>
                <g transform="matrix(0.369711,0,0,0.369711,136.352,176.964)">
                    <path d="M246.222,20.943C246.222,19.054 247.753,17.524 249.641,17.524C251.529,17.524 253.06,19.054 253.06,20.943C253.06,22.831 251.529,24.362 249.641,24.362C247.753,24.362 246.222,22.831 246.222,20.943Z" style="fill:rgb(250,244,150);fill-rule:nonzero;"/>
                </g>
                <g transform="matrix(0.369711,0,0,0.369711,136.352,176.964)">
                    <path d="M257.656,27.781C257.656,25.893 259.187,24.362 261.075,24.362C262.964,24.362 264.495,25.893 264.495,27.781C264.495,29.67 262.964,31.201 261.075,31.201C259.187,31.201 257.656,29.67 257.656,27.781Z" style="fill:rgb(250,244,150);fill-rule:nonzero;"/>
                </g>
                <g transform="matrix(0.369711,0,0,0.369711,136.352,176.964)">
                    <path d="M254.237,20.943C254.237,19.054 255.768,17.524 257.656,17.524C259.545,17.524 261.075,19.054 261.075,20.943C261.075,22.831 259.545,24.362 257.656,24.362C255.768,24.362 254.237,22.831 254.237,20.943Z" style="fill:rgb(250,244,150);fill-rule:nonzero;"/>
                </g>
                <g transform="matrix(0.369711,0,0,0.369711,136.352,176.964)">
                    <path d="M15.211,278.119C13.322,278.119 11.792,276.588 11.792,274.7C11.792,272.811 13.322,271.281 15.211,271.281C17.099,271.281 18.63,272.811 18.63,274.7C18.63,276.588 17.099,278.119 15.211,278.119Z" style="fill:rgb(250,244,150);fill-rule:nonzero;"/>
                </g>
                <g transform="matrix(0.369711,0,0,0.369711,136.352,176.964)">
                    <path d="M8.372,281.538C6.484,281.538 4.953,280.008 4.953,278.119C4.953,276.231 6.484,274.7 8.372,274.7C10.261,274.7 11.792,276.231 11.792,278.119C11.792,280.008 10.261,281.538 8.372,281.538Z" style="fill:rgb(250,244,150);fill-rule:nonzero;"/>
                </g>
                <g transform="matrix(0.369711,0,0,0.369711,136.352,176.964)">
                    <path d="M15.211,286.134C13.322,286.134 11.792,284.603 11.792,282.715C11.792,280.826 13.322,279.296 15.211,279.296C17.099,279.296 18.63,280.826 18.63,282.715C18.63,284.603 17.099,286.134 15.211,286.134Z" style="fill:rgb(250,244,150);fill-rule:nonzero;"/>
                </g>
                <g transform="matrix(0.369711,0,0,0.369711,136.352,176.964)">
                    <path d="M8.372,289.553C6.484,289.553 4.953,288.022 4.953,286.134C4.953,284.245 6.484,282.715 8.372,282.715C10.261,282.715 11.792,284.245 11.792,286.134C11.792,288.022 10.261,289.553 8.372,289.553Z" style="fill:rgb(250,244,150);fill-rule:nonzero;"/>
                </g>
                <g transform="matrix(0.369711,0,0,0.369711,136.352,176.964)">
                    <path d="M241.913,69.789L158.027,69.789L70.568,278.653L154.455,278.653L241.913,69.789Z" style="fill:white;fill-rule:nonzero;"/>
                </g>
            </g>
            <g id="Title" transform="matrix(1,0,0,1,9.36487,11.2595)">
                <text x="89.695px" y="128.78px" style="font-family:'Terminator';font-weight:500;font-size:20px;fill:white;">COMPUTER</text>
                <g transform="matrix(20,0,0,20,322.955,148.78)">
                </g>
                <text x="89.695px" y="148.78px" style="font-family:'Terminator';font-weight:500;font-size:20px;fill:white;">ORG<tspan x="157.435px 178.535px " y="148.78px 148.78px ">AN</tspan>IZA<tspan x="248.915px 271.735px " y="148.78px 148.78px ">TI</tspan>ON</text>
            </g>
        </g>
    </g>
</svg>
